<?xml version="1.0" encoding="utf-8"?>
<!-- Generator: Adobe Illustrator 23.0.3, SVG Export Plug-In . SVG Version: 6.00 Build 0)  -->
<svg version="1.1" id="Layer_1" xmlns="http://www.w3.org/2000/svg" xmlns:xlink="http://www.w3.org/1999/xlink" x="0px" y="0px"
	 viewBox="0 0 455.7 455.7" style="enable-background:new 0 0 455.7 455.7;" xml:space="preserve">
<style type="text/css">
	.st0{fill:#4A4A4A;}
</style>
<title>instagram</title>
<path class="st0" d="M227.9,182.6c-25,0-45.3,20.3-45.3,45.3s20.3,45.3,45.3,45.3s45.3-20.3,45.3-45.3l0,0
	C273.1,202.8,252.9,182.6,227.9,182.6z M227.9,182.6c-25,0-45.3,20.3-45.3,45.3s20.3,45.3,45.3,45.3s45.3-20.3,45.3-45.3l0,0
	C273.1,202.8,252.9,182.6,227.9,182.6z M303.4,108.7h-151c-24.1,0-43.7,19.6-43.7,43.7v151c0,24.1,19.6,43.7,43.7,43.7h151
	c24.1,0,43.7-19.6,43.7-43.7v-151C347,128.2,327.5,108.7,303.4,108.7z M227.9,306.4c-43.3,0-78.5-35.1-78.5-78.5
	s35.1-78.5,78.5-78.5s78.5,35.1,78.5,78.5l0,0C306.3,271.2,271.2,306.3,227.9,306.4L227.9,306.4z M308.9,165.6
	c-10.3,0-18.6-8.3-18.6-18.6s8.3-18.6,18.6-18.6c10.2,0,18.5,8.3,18.6,18.5C327.5,157.3,319.1,165.6,308.9,165.6L308.9,165.6
	L308.9,165.6z M227.9,182.6c-25,0-45.3,20.3-45.3,45.3s20.3,45.3,45.3,45.3s45.3-20.3,45.3-45.3l0,0
	C273.1,202.8,252.9,182.6,227.9,182.6L227.9,182.6z M303.4,108.7h-151c-24.1,0-43.7,19.6-43.7,43.7v151c0,24.1,19.6,43.7,43.7,43.7
	h151c24.1,0,43.7-19.6,43.7-43.7v-151C347,128.2,327.5,108.7,303.4,108.7z M227.9,306.4c-43.3,0-78.5-35.1-78.5-78.5
	s35.1-78.5,78.5-78.5s78.5,35.1,78.5,78.5l0,0C306.3,271.2,271.2,306.3,227.9,306.4L227.9,306.4z M308.9,165.6
	c-10.3,0-18.6-8.3-18.6-18.6s8.3-18.6,18.6-18.6c10.2,0,18.5,8.3,18.6,18.5C327.5,157.3,319.1,165.6,308.9,165.6L308.9,165.6
	L308.9,165.6z M227.9,182.6c-25,0-45.3,20.3-45.3,45.3s20.3,45.3,45.3,45.3s45.3-20.3,45.3-45.3l0,0
	C273.1,202.8,252.9,182.6,227.9,182.6L227.9,182.6z M0,0v455.7h455.7V0H0z M380.2,303.4c-0.1,42.4-34.4,76.8-76.9,76.9h-151
	c-42.4-0.1-76.8-34.4-76.9-76.9v-151c0.1-42.4,34.4-76.8,76.9-76.9h151c42.4,0.1,76.8,34.4,76.9,76.9V303.4L380.2,303.4z
	 M303.4,108.7h-151c-24.1,0-43.7,19.6-43.7,43.7v151c0,24.1,19.6,43.7,43.7,43.7h151c24.1,0,43.7-19.6,43.7-43.7v-151
	C347,128.2,327.5,108.7,303.4,108.7L303.4,108.7z M227.9,306.3c-43.3,0-78.5-35.1-78.5-78.5s35.1-78.5,78.5-78.5
	s78.5,35.1,78.5,78.5l0,0C306.3,271.2,271.2,306.3,227.9,306.3L227.9,306.3z M308.9,165.6c-10.3,0-18.6-8.3-18.6-18.6
	s8.3-18.6,18.6-18.6c10.2,0,18.5,8.3,18.6,18.5C327.5,157.3,319.1,165.6,308.9,165.6L308.9,165.6L308.9,165.6z M227.9,182.5
	c-25,0-45.3,20.3-45.3,45.3s20.3,45.3,45.3,45.3s45.3-20.3,45.3-45.3l0,0C273.1,202.8,252.9,182.6,227.9,182.5L227.9,182.5z
	 M227.9,182.5c-25,0-45.3,20.3-45.3,45.3s20.3,45.3,45.3,45.3s45.3-20.3,45.3-45.3l0,0C273.1,202.8,252.9,182.6,227.9,182.5
	L227.9,182.5z M227.9,182.5c-25,0-45.3,20.3-45.3,45.3s20.3,45.3,45.3,45.3s45.3-20.3,45.3-45.3l0,0
	C273.1,202.8,252.9,182.6,227.9,182.5L227.9,182.5z M303.4,108.7h-151c-24.1,0-43.7,19.6-43.7,43.7v151c0,24.1,19.6,43.7,43.7,43.7
	h151c24.1,0,43.7-19.6,43.7-43.7v-151C347,128.2,327.5,108.7,303.4,108.7L303.4,108.7z M227.9,306.3c-43.3,0-78.5-35.1-78.5-78.5
	s35.1-78.5,78.5-78.5s78.5,35.1,78.5,78.5l0,0C306.3,271.2,271.2,306.3,227.9,306.3L227.9,306.3z M308.9,165.6
	c-10.3,0-18.6-8.3-18.6-18.6s8.3-18.6,18.6-18.6c10.2,0,18.5,8.3,18.6,18.5C327.5,157.3,319.1,165.6,308.9,165.6L308.9,165.6
	L308.9,165.6z M227.9,182.5c-25,0-45.3,20.3-45.3,45.3s20.3,45.3,45.3,45.3s45.3-20.3,45.3-45.3l0,0
	C273.1,202.8,252.9,182.6,227.9,182.5L227.9,182.5z M227.9,182.5c-25,0-45.3,20.3-45.3,45.3s20.3,45.3,45.3,45.3
	s45.3-20.3,45.3-45.3l0,0C273.1,202.8,252.9,182.6,227.9,182.5L227.9,182.5z M227.9,182.5c-25,0-45.3,20.3-45.3,45.3
	s20.3,45.3,45.3,45.3s45.3-20.3,45.3-45.3l0,0C273.1,202.8,252.9,182.6,227.9,182.5L227.9,182.5z M303.4,108.7h-151
	c-24.1,0-43.7,19.6-43.7,43.7v151c0,24.1,19.6,43.7,43.7,43.7h151c24.1,0,43.7-19.6,43.7-43.7v-151
	C347,128.2,327.5,108.7,303.4,108.7L303.4,108.7z M227.9,306.3c-43.3,0-78.5-35.1-78.5-78.5s35.1-78.5,78.5-78.5
	s78.5,35.1,78.5,78.5l0,0C306.3,271.2,271.2,306.3,227.9,306.3L227.9,306.3z M308.9,165.6c-10.3,0-18.6-8.3-18.6-18.6
	s8.3-18.6,18.6-18.6c10.2,0,18.5,8.3,18.6,18.5C327.5,157.3,319.1,165.6,308.9,165.6L308.9,165.6L308.9,165.6z M227.9,182.5
	c-25,0-45.3,20.3-45.3,45.3s20.3,45.3,45.3,45.3s45.3-20.3,45.3-45.3l0,0C273.1,202.8,252.9,182.6,227.9,182.5L227.9,182.5z"/>
</svg>
