<svg id="Layer_1" data-name="Layer 1" xmlns="http://www.w3.org/2000/svg" viewBox="0 0 512 512"><defs><style>.cls-1{fill:#00bdb2;}</style></defs><title>instagram-blue</title><path class="cls-1" d="M437,0H75A75,75,0,0,0,0,75V437a75,75,0,0,0,75,75H437a75,75,0,0,0,75-75V75A75,75,0,0,0,437,0ZM257,390c-74.4,0-135-60.6-135-135s60.6-135,135-135,135,60.6,135,135S331.4,390,257,390ZM407,150a45,45,0,1,1,45-45A45.07,45.07,0,0,1,407,150Z"/><path class="cls-1" d="M407,90a15,15,0,1,0,15,15A15,15,0,0,0,407,90Z"/><path class="cls-1" d="M257,150A105,105,0,1,0,362,255,105.12,105.12,0,0,0,257,150Z"/></svg>