<svg id="Layer_1" data-name="Layer 1" xmlns="http://www.w3.org/2000/svg" viewBox="0 0 455.73 455.73"><defs><style>.cls-1{fill:#4a4a4a;}</style></defs><title>instagram</title><path class="cls-1" d="M227.86,182.55a45.32,45.32,0,1,0,45.32,45.31A45.38,45.38,0,0,0,227.86,182.55Zm0,0a45.32,45.32,0,1,0,45.32,45.31A45.38,45.38,0,0,0,227.86,182.55Zm75.5-73.89h-151a43.76,43.76,0,0,0-43.71,43.71v151a43.76,43.76,0,0,0,43.71,43.71h151a43.76,43.76,0,0,0,43.71-43.71v-151A43.76,43.76,0,0,0,303.36,108.66Zm-75.5,197.69a78.49,78.49,0,1,1,78.49-78.49A78.58,78.58,0,0,1,227.86,306.35Zm81-140.74A18.57,18.57,0,1,1,327.44,147,18.59,18.59,0,0,1,308.87,165.61Zm-81,16.94a45.32,45.32,0,1,0,45.32,45.31A45.38,45.38,0,0,0,227.86,182.55Zm75.5-73.89h-151a43.76,43.76,0,0,0-43.71,43.71v151a43.76,43.76,0,0,0,43.71,43.71h151a43.76,43.76,0,0,0,43.71-43.71v-151A43.76,43.76,0,0,0,303.36,108.66Zm-75.5,197.69a78.49,78.49,0,1,1,78.49-78.49A78.58,78.58,0,0,1,227.86,306.35Zm81-140.74A18.57,18.57,0,1,1,327.44,147,18.59,18.59,0,0,1,308.87,165.61Zm-81,16.94a45.32,45.32,0,1,0,45.32,45.31A45.38,45.38,0,0,0,227.86,182.55ZM0,0V455.73H455.73V0ZM380.23,303.36a77,77,0,0,1-76.87,76.87h-151A77,77,0,0,1,75.5,303.36v-151A77,77,0,0,1,152.37,75.5h151a77,77,0,0,1,76.87,76.87v151Zm-76.87-194.7h-151a43.76,43.76,0,0,0-43.71,43.71v151a43.76,43.76,0,0,0,43.71,43.71h151a43.76,43.76,0,0,0,43.71-43.71v-151A43.76,43.76,0,0,0,303.36,108.66Zm-75.5,197.69a78.49,78.49,0,1,1,78.49-78.49A78.58,78.58,0,0,1,227.86,306.35Zm81-140.74A18.57,18.57,0,1,1,327.44,147,18.59,18.59,0,0,1,308.87,165.61Zm-81,16.94a45.32,45.32,0,1,0,45.32,45.31A45.38,45.38,0,0,0,227.86,182.55Zm0,0a45.32,45.32,0,1,0,45.32,45.31A45.38,45.38,0,0,0,227.86,182.55Zm0,0a45.32,45.32,0,1,0,45.32,45.31A45.38,45.38,0,0,0,227.86,182.55Zm75.5-73.89h-151a43.76,43.76,0,0,0-43.71,43.71v151a43.76,43.76,0,0,0,43.71,43.71h151a43.76,43.76,0,0,0,43.71-43.71v-151A43.76,43.76,0,0,0,303.36,108.66Zm-75.5,197.69a78.49,78.49,0,1,1,78.49-78.49A78.58,78.58,0,0,1,227.86,306.35Zm81-140.74A18.57,18.57,0,1,1,327.44,147,18.59,18.59,0,0,1,308.87,165.61Zm-81,16.94a45.32,45.32,0,1,0,45.32,45.31A45.38,45.38,0,0,0,227.86,182.55Zm0,0a45.32,45.32,0,1,0,45.32,45.31A45.38,45.38,0,0,0,227.86,182.55Zm0,0a45.32,45.32,0,1,0,45.32,45.31A45.38,45.38,0,0,0,227.86,182.55Zm75.5-73.89h-151a43.76,43.76,0,0,0-43.71,43.71v151a43.76,43.76,0,0,0,43.71,43.71h151a43.76,43.76,0,0,0,43.71-43.71v-151A43.76,43.76,0,0,0,303.36,108.66Zm-75.5,197.69a78.49,78.49,0,1,1,78.49-78.49A78.58,78.58,0,0,1,227.86,306.35Zm81-140.74A18.57,18.57,0,1,1,327.44,147,18.59,18.59,0,0,1,308.87,165.61Zm-81,16.94a45.32,45.32,0,1,0,45.32,45.31A45.38,45.38,0,0,0,227.86,182.55Z"/></svg>