<svg xmlns="http://www.w3.org/2000/svg" viewBox="0 0 166.32 130.81"><defs><style>.cls-1{fill:#fff;}</style></defs><title>Aktiv 9</title><g id="Lag_2" data-name="Lag 2"><g id="Lag_1-2" data-name="Lag 1"><path class="cls-1" d="M85.16,44.38c0-11.8,0-23.6,0-35.4A3.08,3.08,0,0,1,86.49,6.8c11-6.86,22.56-9.07,34.87-4.12,6.36,2.56,12.44,5.8,18.83,8.28a38.27,38.27,0,0,0,10.65,2.32c6.21.51,11.44-1.62,14.67-7.57l.81.51c-.57,2.34-.83,4.81-1.75,7-2.73,6.5-7.48,11.33-12.92,15.79-10.31,8.48-21.92,8.27-34.12,6.51a85.17,85.17,0,0,0-16.82-.63C94.14,35.26,88.63,38,85.16,44.38Z"/><path class="cls-1" d="M153.52,43c-2,4.52-4.18,9-6.05,13.56-5,12.16-4.41,24.7-2.42,37.34,1.41,9,1.29,17.81-2.68,26.36a17.65,17.65,0,0,1-31.94,0c-6.14-14.21-3.32-27.24,5.62-39.08,4.16-5.52,9.36-10.29,14.3-15.19,5.47-5.43,11.25-10.53,16.74-15.94a91.18,91.18,0,0,0,6.07-7.31Z"/><path class="cls-1" d="M0,2.36H43.59q13.8,0,22.37,8.24t8.57,21.78A30,30,0,0,1,69.39,50q-5.15,7.37-15.51,11.87,14.49,2.22,21.71,10.22t7.2,21.83q0,16.94-11.73,26.93t-31.68,10H0Zm28.56,25v24.4h3.17q6.4,0,10.15-3.5t3.74-9.67q0-5.61-2.91-8.43t-8.78-2.8Zm0,48.24v30h9.23a16.06,16.06,0,0,0,11.38-4.19A14.06,14.06,0,0,0,53.7,90.57a13.92,13.92,0,0,0-4.57-10.91,16.38,16.38,0,0,0-11.34-4.1Z"/></g></g></svg>