<svg xmlns="http://www.w3.org/2000/svg" viewBox="0 0 175.19 204.9"><defs><style>.cls-1,.cls-2{fill:#fff;}.cls-2{font-size:188.57px;font-family:AbadiMT-CondensedExtraBold, Abadi MT Condensed Extra Bold;font-weight:800;}</style></defs><title>Aktiv 7</title><g id="Lag_2" data-name="Lag 2"><g id="Lag_1-2" data-name="Lag 1"><path class="cls-1" d="M162.4,70.66c-2,4.52-4.18,9-6.05,13.56-5,12.15-4.41,24.7-2.43,37.33,1.42,9,1.29,17.82-2.67,26.37A17.68,17.68,0,0,1,135,158.07,17.5,17.5,0,0,1,119.3,148c-6.13-14.21-3.31-27.25,5.62-39.09,4.17-5.52,9.37-10.29,14.31-15.19,5.46-5.42,11.25-10.52,16.74-15.93A93,93,0,0,0,162,70.43Z"/><path class="cls-1" d="M94,72.06c0-11.79,0-23.59.06-35.39a3.12,3.12,0,0,1,1.27-2.19c11-6.86,22.57-9.06,34.88-4.11,6.35,2.56,12.44,5.79,18.82,8.27A38.44,38.44,0,0,0,159.71,41c6.22.51,11.45-1.62,14.68-7.57l.8.51c-.56,2.34-.82,4.81-1.74,7-2.73,6.51-7.49,11.33-12.92,15.8-10.31,8.48-21.92,8.26-34.12,6.51a85.21,85.21,0,0,0-16.82-.64C103,63,97.5,65.72,94,72.06Z"/><text class="cls-2" transform="translate(0 158.5) scale(0.95 1)">B</text></g></g></svg>